<?xml version="1.0" encoding="utf-8"?><!DOCTYPE svg PUBLIC "-//W3C//DTD SVG 1.1//EN" "http://www.w3.org/Graphics/SVG/1.1/DTD/svg11.dtd"><svg version="1.1" xmlns="http://www.w3.org/2000/svg" width="1046.25" height="174.84375" viewBox="0 0 1046.25 174.84375"><g><g><rect fill="#FFFFFF" width="0" height="0" /></g><g transform="translate(0,0)"><path fill="#000000" d="M42.19 22.97L46.41 22.97L53.44 30L53.44 32.81Q45.47 32.81 39.38 53.91L39.38 53.91Q11.72 78.75-5.63 82.03L-5.63 82.03L-7.03 82.03L21.09 59.53Q34.69 45.94 43.59 30L43.59 30L43.59 28.59L40.78 24.38L42.19 22.97ZM108.28 31.41L115.31 22.97L120.94 22.97Q108.28 65.16 108.28 89.06L108.28 89.06L109.69 115.78Q105.47 136.88 101.25 136.88L101.25 136.88L99.84 135.47L101.25 134.06L101.25 97.50Q101.25 73.13 112.50 31.41L112.50 31.41L111.09 31.41L109.69 32.81L108.28 32.81L108.28 31.41ZM59.06 32.81L63.28 28.59L68.91 32.81Q68.91 35.16 59.06 41.25L59.06 41.25L57.66 39.84L57.66 38.44L60.47 35.63L59.06 34.22L59.06 32.81ZM47.81 44.06L52.03 44.06L56.25 48.28L52.03 53.91L54.84 53.91L66.09 49.69L68.91 53.91L57.66 66.56L59.06 67.97L59.06 69.38Q59.06 76.88 54.84 82.03L54.84 82.03L64.69 80.63L67.50 80.63L67.50 82.03L61.88 87.66L53.44 87.66L49.22 83.44L50.63 69.38L49.22 67.97Q55.31 65.16 59.06 55.31L59.06 55.31L57.66 55.31Q51.56 60.94 47.81 60.94L47.81 60.94L46.41 59.53L46.41 58.13L47.81 56.72L49.22 56.72L46.41 45.47L47.81 44.06ZM92.81 60.94L92.81 60.94L92.81 63.75L84.38 76.41L82.97 76.41L77.34 70.78L77.34 69.38L81.56 69.38L82.97 70.78L84.38 70.78Q90.47 60.94 92.81 60.94ZM37.97 62.34L40.78 62.34L46.41 67.97L46.41 75Q46.41 85.31 9.84 141.09L9.84 141.09L7.03 141.09L4.22 138.28Q8.44 137.34 29.53 97.50L29.53 97.50Q39.38 79.22 39.38 75L39.38 75L39.38 67.97L36.56 63.75L37.97 62.34ZM74.53 93.28L74.53 93.28L77.34 97.50L70.31 111.56Q74.53 111.56 77.34 117.19L77.34 117.19Q67.03 131.25 61.88 131.25L61.88 131.25L60.47 129.84L66.09 121.41L66.09 118.59Q61.88 118.59 61.88 115.78L61.88 115.78L67.50 100.31L66.09 100.31Q61.41 100.78 50.63 114.38L50.63 114.38L52.03 121.41L52.03 122.81L49.22 125.63L46.41 125.63Q39.38 120.47 35.16 111.56L35.16 111.56L36.56 110.16L39.38 110.16L45 111.56Q49.22 111.56 49.22 105.94L49.22 105.94Q65.63 93.28 74.53 93.28Z"/></g><g transform="translate(116.25,0)"><path fill="#000000" d="M46.41 22.03L49.22 19.22L57.66 19.22Q61.88 20.63 61.88 27.66L61.88 27.66L61.88 29.06Q61.88 31.88 54.84 31.88L54.84 31.88L50.63 36.09L47.81 33.28L47.81 31.88L49.22 30.47L46.41 22.03ZM49.22 37.50L49.22 37.50Q61.88 38.91 61.88 43.13L61.88 43.13L61.88 45.94Q61.88 50.16 54.84 50.16L54.84 50.16L54.84 51.56Q60.47 51.56 60.47 60L60.47 60L60.47 61.41Q54.38 69.84 47.81 69.84L47.81 69.84L50.63 74.06L47.81 86.72Q73.13 69.38 73.13 64.22L73.13 64.22Q73.13 55.78 77.34 55.78L77.34 55.78L84.38 58.59Q95.16 45.94 106.88 45.94L106.88 45.94L109.69 50.16L109.69 55.78Q108.75 58.59 90 64.22L90 64.22Q90 66.09 84.38 68.44L84.38 68.44L80.16 83.91L104.06 68.44L109.69 68.44L112.50 71.25L112.50 74.06Q107.34 79.69 92.81 86.72L92.81 86.72L92.81 109.22Q92.81 119.53 97.03 134.53L97.03 134.53L95.63 135.94L95.63 137.34L98.44 145.78L97.03 147.19L87.19 147.19Q81.56 147.19 81.56 124.69L81.56 124.69L84.38 110.63L82.97 109.22L82.97 107.81L85.78 92.34Q75.94 95.63 75.94 102.19L75.94 102.19Q64.69 132.66 57.66 138.75L57.66 138.75L53.44 138.75L50.63 135.94L50.63 134.53Q50.63 123.75 54.84 123.28L54.84 123.28L56.25 124.69L57.66 124.69Q66.09 103.13 68.91 88.13L68.91 88.13L68.91 79.69Q42.19 93.75 42.19 119.06L42.19 119.06Q37.97 119.06 37.97 137.34L37.97 137.34L37.97 144.38L35.16 147.19L32.34 147.19L30.94 145.78L29.53 145.78L32.34 128.91L32.34 119.06L30.94 119.06Q22.97 131.72 15.47 131.72L15.47 131.72L12.66 131.72L9.84 128.91L9.84 124.69L36.56 96.56L35.16 96.56Q18.75 107.81 9.84 107.81L9.84 107.81L8.44 103.59Q8.44 98.44 39.38 81.09L39.38 81.09L43.59 76.88L43.59 75.47L35.16 81.09L32.34 78.28L32.34 76.88L47.81 60L45 57.19Q45 37.50 49.22 37.50Z"/></g><g transform="translate(232.5,0)"><path fill="#000000" d="M42.19 22.97L46.41 22.97L53.44 30L53.44 32.81Q45.47 32.81 39.38 53.91L39.38 53.91Q11.72 78.75-5.63 82.03L-5.63 82.03L-7.03 82.03L21.09 59.53Q34.69 45.94 43.59 30L43.59 30L43.59 28.59L40.78 24.38L42.19 22.97ZM108.28 31.41L115.31 22.97L120.94 22.97Q108.28 65.16 108.28 89.06L108.28 89.06L109.69 115.78Q105.47 136.88 101.25 136.88L101.25 136.88L99.84 135.47L101.25 134.06L101.25 97.50Q101.25 73.13 112.50 31.41L112.50 31.41L111.09 31.41L109.69 32.81L108.28 32.81L108.28 31.41ZM59.06 32.81L63.28 28.59L68.91 32.81Q68.91 35.16 59.06 41.25L59.06 41.25L57.66 39.84L57.66 38.44L60.47 35.63L59.06 34.22L59.06 32.81ZM47.81 44.06L52.03 44.06L56.25 48.28L52.03 53.91L54.84 53.91L66.09 49.69L68.91 53.91L57.66 66.56L59.06 67.97L59.06 69.38Q59.06 76.88 54.84 82.03L54.84 82.03L64.69 80.63L67.50 80.63L67.50 82.03L61.88 87.66L53.44 87.66L49.22 83.44L50.63 69.38L49.22 67.97Q55.31 65.16 59.06 55.31L59.06 55.31L57.66 55.31Q51.56 60.94 47.81 60.94L47.81 60.94L46.41 59.53L46.41 58.13L47.81 56.72L49.22 56.72L46.41 45.47L47.81 44.06ZM92.81 60.94L92.81 60.94L92.81 63.75L84.38 76.41L82.97 76.41L77.34 70.78L77.34 69.38L81.56 69.38L82.97 70.78L84.38 70.78Q90.47 60.94 92.81 60.94ZM37.97 62.34L40.78 62.34L46.41 67.97L46.41 75Q46.41 85.31 9.84 141.09L9.84 141.09L7.03 141.09L4.22 138.28Q8.44 137.34 29.53 97.50L29.53 97.50Q39.38 79.22 39.38 75L39.38 75L39.38 67.97L36.56 63.75L37.97 62.34ZM74.53 93.28L74.53 93.28L77.34 97.50L70.31 111.56Q74.53 111.56 77.34 117.19L77.34 117.19Q67.03 131.25 61.88 131.25L61.88 131.25L60.47 129.84L66.09 121.41L66.09 118.59Q61.88 118.59 61.88 115.78L61.88 115.78L67.50 100.31L66.09 100.31Q61.41 100.78 50.63 114.38L50.63 114.38L52.03 121.41L52.03 122.81L49.22 125.63L46.41 125.63Q39.38 120.47 35.16 111.56L35.16 111.56L36.56 110.16L39.38 110.16L45 111.56Q49.22 111.56 49.22 105.94L49.22 105.94Q65.63 93.28 74.53 93.28Z"/></g><g transform="translate(348.75,0)"><path fill="#000000" d="M86.72 20.16L88.13 20.16Q92.34 20.16 93.75 35.63L93.75 35.63L95.16 35.63Q100.78 28.59 106.41 28.59L106.41 28.59Q113.44 30.47 113.44 32.81L113.44 32.81Q67.50 58.59 54.38 62.34L54.38 62.34L61.41 56.72L60 55.31L60 53.91L61.41 49.69L57.19 49.69Q57.19 56.25 45.94 58.13L45.94 58.13L41.72 58.13L38.91 55.31L38.91 53.91Q53.44 53.91 64.22 39.84L64.22 39.84L65.63 30Q69.38 30 72.66 41.25L72.66 41.25Q86.72 39.38 86.72 20.16L86.72 20.16ZM121.88 39.84L121.88 39.84L124.69 39.84L128.91 44.06L100.78 52.50L99.38 51.09L97.97 51.09L27.66 86.25L13.59 90.47L12.19 89.06L12.19 87.66Q55.31 62.81 121.88 39.84ZM69.84 49.69L69.84 49.69L69.84 51.09L71.25 51.09L76.88 45.47L75.47 45.47Q69.84 47.34 69.84 49.69ZM96.56 53.91L96.56 53.91L90.94 59.53L89.53 59.53L89.53 58.13Q89.53 54.84 96.56 53.91ZM52.97 82.03L78.28 73.59L85.31 73.59L85.31 76.41Q85.31 78.75 72.66 83.44L72.66 83.44L72.66 84.84L81.09 87.66L81.09 90.47L62.81 105.94L65.63 105.94L69.84 103.13L71.25 104.53L85.31 94.69L86.72 96.09L86.72 97.50L71.25 111.56L72.66 115.78L71.25 115.78L74.06 124.22L74.06 132.66L67.03 138.28L62.81 138.28L58.59 134.06Q63.28 134.06 67.03 114.38L67.03 114.38L65.63 114.38L57.19 117.19L55.78 117.19L52.97 114.38L52.97 110.16Q63.75 96.09 67.03 96.09L67.03 96.09L67.03 93.28L65.63 94.69L62.81 94.69L60 91.88L60 89.06L64.22 83.44L57.19 84.84L55.78 84.84L52.97 82.03ZM88.13 117.19L88.13 117.19Q93.75 119.06 96.56 124.22L96.56 124.22L96.56 127.03Q92.81 134.06 85.31 134.06L85.31 134.06L83.91 134.06L81.09 131.25Q83.44 131.25 88.13 117.19ZM50.16 132.66L57.19 127.03L58.59 128.44L58.59 129.84L47.34 141.09L44.53 141.09L40.31 136.88Q40.31 134.06 50.16 132.66L50.16 132.66Z"/></g><g transform="translate(465,0)"><path fill="#000000" d="M38.91 26.25L40.31 26.25L44.53 43.13L43.13 43.13L45.94 54.38L50.16 51.56L44.53 34.69L45.94 34.69L62.81 47.34Q54.38 67.03 54.38 72.66L54.38 72.66Q72.66 61.88 72.66 37.50L72.66 37.50Q77.34 27.66 79.69 27.66L79.69 27.66L82.50 30.47L82.50 47.34L83.91 47.34L99.38 34.69L97.97 27.66L102.19 27.66L112.03 26.25L113.44 27.66L113.44 30.47L82.50 57.19L82.50 78.28L83.91 78.28Q83.91 72.66 92.34 72.66L92.34 72.66Q97.97 74.53 97.97 76.88L97.97 76.88L86.72 102.19L88.13 102.19L92.34 100.78Q97.97 106.41 97.97 117.66L97.97 117.66Q97.97 137.81 82.50 145.78L82.50 145.78L81.09 145.78L79.69 144.38L79.69 142.97L81.09 142.97L75.47 133.13L75.47 130.31Q75.47 119.06 88.13 119.06L88.13 119.06L89.53 126.09L90.94 126.09L90.94 112.03L88.13 109.22L86.72 109.22Q73.13 120.47 65.63 141.56L65.63 141.56L62.81 141.56Q60 141.56 60 137.34L60 137.34Q76.88 110.63 85.31 89.53L85.31 89.53L83.91 89.53L71.25 97.97Q65.63 97.97 64.22 86.72L64.22 86.72L67.03 71.25L65.63 71.25L38.91 107.81L36.09 138.75L37.50 142.97L33.28 145.78L31.88 145.78Q25.31 140.16 15 138.75L15 138.75Q14.06 145.78 10.78 145.78L10.78 145.78L9.38 145.78Q5.16 144.38 5.16 137.34L5.16 137.34L5.16 131.72Q31.88 103.59 31.88 99.38L31.88 99.38L33.28 89.53Q22.50 85.78 20.63 81.09L20.63 81.09L20.63 78.28Q20.63 71.72 37.50 58.59L37.50 58.59L38.91 43.13L37.50 27.66L38.91 26.25ZM24.84 128.91L24.84 128.91L30.47 134.53L31.88 134.53L31.88 116.25Q24.84 121.88 24.84 128.91Z"/></g><g transform="translate(581.25,0)"><path fill="#000000" d="M97.97 18.75L99.38 18.75L100.78 25.31Q90 38.44 65.63 49.69L65.63 49.69L62.81 47.34L64.22 45.94L64.22 44.53Q58.13 44.53 54.38 32.81L54.38 32.81L55.78 31.88L65.63 32.81L75 31.88L76.41 32.81L76.41 34.22Q93.75 18.75 97.97 18.75L97.97 18.75ZM99.38 34.22L99.38 34.22L103.59 34.22L106.41 37.03Q100.31 44.06 79.22 54.84L79.22 54.84L79.22 56.25Q84.38 56.25 84.38 59.06L84.38 59.06L84.38 60L77.81 86.25L77.81 88.59L108.75 76.88L111.56 76.88L114.38 79.69L92.81 91.41L92.81 92.34L95.16 92.34L105 91.41L107.34 95.16Q107.34 98.91 88.59 104.06L88.59 104.06L87.19 104.06L87.19 101.72Q87.19 98.91 91.41 98.91L91.41 98.91L88.59 93.75L82.97 98.91L84.38 100.31L84.38 101.72L80.16 121.88L82.97 140.16Q80.16 148.13 77.81 148.13L77.81 148.13L76.41 148.13L61.41 133.59L64.22 131.25L72.19 132.19L73.59 123.28L72.19 119.53L75 98.91Q67.97 100.31 61.41 107.81L61.41 107.81L54.38 109.22L54.38 110.63L61.41 112.03L69.38 109.22L70.78 110.63L70.78 112.03Q70.78 114.38 66.56 114.38L66.56 114.38L67.97 123.28L64.22 127.03Q60.94 127.03 55.78 119.53L55.78 119.53Q46.41 122.34 23.44 142.50L23.44 142.50L22.03 142.50Q18.75 142.50 17.81 128.44L17.81 128.44Q24.38 126.09 52.97 102.66L52.97 102.66L49.22 84.84L49.22 82.03L50.63 82.03L57.19 87.19Q57.19 72.66 70.78 57.66L70.78 57.66L69.38 57.66L47.81 76.88Q41.72 75 37.03 67.97L37.03 67.97Q41.72 61.88 70.78 52.50L70.78 52.50L75 53.91Q78.28 48.28 99.38 34.22ZM73.59 73.13L70.78 70.31L69.38 75.47L70.78 76.88L72.19 76.88L73.59 75.47L73.59 73.13ZM72.19 91.41L66.56 90Q65.63 95.16 61.41 95.16L61.41 95.16L61.41 96.56L64.22 96.56Q72.19 93.28 72.19 91.41L72.19 91.41ZM34.22 123.28L34.22 123.28L35.63 123.28L52.97 115.78L52.97 112.03L49.22 112.03Q37.03 119.06 34.22 123.28Z"/></g><g transform="translate(697.5,0)"><path fill="#000000" d="M33.75 56.25L74.53 22.50Q81.09 25.31 81.56 28.13L81.56 28.13L45 54.84L46.41 54.84Q71.72 49.22 71.72 37.97L71.72 37.97L75.94 36.56L77.34 43.59L78.75 43.59L82.97 40.78L91.41 40.78L94.22 43.59Q94.22 46.41 82.97 46.41L82.97 46.41Q71.72 59.53 71.72 67.50L71.72 67.50L74.53 67.50L78.75 64.69L84.38 64.69L90 70.31L88.59 71.72L87.19 71.72L91.41 78.75L82.97 81.56L78.75 80.16L64.69 104.06L64.69 105.47L68.91 106.88L88.59 99.84L90 98.44L92.81 98.44L98.44 108.28Q98.44 111.09 94.22 111.09L94.22 111.09Q90.47 122.34 87.19 122.34L87.19 122.34L85.78 120.94L84.38 120.94L90 111.09L90 108.28L71.72 118.13Q74.53 128.44 95.63 129.38L95.63 129.38Q98.44 129.38 98.44 115.31L98.44 115.31L99.84 113.91L101.25 113.91Q105.47 113.91 105.47 127.97L105.47 127.97Q98.91 135 84.38 135L84.38 135L82.97 135Q74.06 135 63.28 125.16L63.28 125.16L30.94 139.22L30.94 137.81Q14.53 139.22 11.25 143.44L11.25 143.44L9.84 143.44L7.03 140.63L8.44 139.22L7.03 137.81L5.63 137.81Q5.63 123.28 56.25 108.28L56.25 108.28L61.88 78.75L60.47 77.34L59.06 77.34L40.78 85.78L37.97 85.78L35.16 82.97L35.16 80.16Q51.09 63.28 59.06 63.28L59.06 63.28L63.28 64.69L63.28 60.47L64.69 59.06L63.28 57.66Q46.41 66.09 40.78 66.09L40.78 66.09L37.97 66.09Q34.69 66.09 33.75 56.25L33.75 56.25ZM60.47 67.50L54.84 70.31L56.25 71.72L56.25 73.13Q61.88 70.78 61.88 68.91L61.88 68.91L61.88 67.50L60.47 67.50ZM19.69 133.59L19.69 133.59L19.69 135L26.72 136.41Q39.84 133.13 50.63 125.16L50.63 125.16Q53.91 125.16 56.25 119.53L56.25 119.53L56.25 118.13Q31.88 123.75 19.69 133.59Z"/></g><g transform="translate(813.75,0)"><path fill="#000000" d="M80.63 18.28L80.63 18.28L84.84 18.28L87.66 21.09L87.66 23.91L76.41 39.38L76.41 40.78L77.81 40.78L86.25 39.38L91.88 42.19Q86.72 51.56 69.38 57.66L69.38 57.66L69.38 56.25Q69.38 52.97 65.16 49.22L65.16 49.22L65.16 43.59Q65.16 38.91 69.38 33.75L69.38 33.75L67.97 32.34L62.34 32.34L55.31 36.56L53.91 35.16L53.91 33.75Q70.31 21.56 80.63 18.28ZM37.03 50.63L38.44 45L39.84 45L48.28 53.44L48.28 60.47L45.47 63.28L39.84 63.28L37.03 60.47L37.03 59.06L38.44 53.44L37.03 52.03L37.03 50.63ZM93.28 54.84L93.28 54.84L98.91 59.06Q81.09 83.44 67.97 108.28L67.97 108.28L66.56 106.88L66.56 105.47Q66.56 98.91 86.25 63.28L86.25 63.28L82.03 63.28Q52.97 81.56 48.28 81.56L48.28 81.56L42.66 81.56L42.66 80.16Q45 75 93.28 54.84ZM56.72 94.22L56.72 94.22L60.94 94.22L63.75 97.03Q63.75 100.31 52.50 101.25L52.50 101.25L52.50 99.84Q54.84 94.22 56.72 94.22ZM37.03 113.91L39.84 98.44L42.66 98.44Q43.59 108.28 46.88 108.28L46.88 108.28L48.28 106.88L49.69 106.88Q61.88 112.03 62.34 115.31L62.34 115.31L62.34 118.13Q38.44 146.25 27.19 146.25L27.19 146.25L24.38 146.25L24.38 142.03Q45 127.03 52.50 115.31L52.50 115.31L51.09 113.91L49.69 113.91L38.44 115.31L37.03 113.91ZM58.13 129.38L58.13 127.97Q77.81 131.25 77.81 136.41L77.81 136.41L75 139.22Q58.13 132.66 58.13 129.38L58.13 129.38Z"/></g><g transform="translate(930,0)"><path fill="#000000" d="M31.88 59.06L78.28 29.53L89.53 29.53L93.75 33.75Q91.41 38.44 54.38 50.63L54.38 50.63Q24.38 71.72 17.81 71.72L17.81 71.72L16.41 70.31L16.41 63.28Q16.41 58.59 38.91 40.78L38.91 40.78L38.91 45L29.06 59.06L31.88 59.06ZM61.41 71.72L61.41 71.72Q67.03 73.59 67.03 75.94L67.03 75.94L60 82.97L54.38 82.97Q54.38 80.16 47.34 80.16L47.34 80.16L45.94 78.75L45.94 77.34Q45.94 74.53 61.41 71.72ZM45.94 101.25L67.03 91.41L68.44 91.41L72.66 95.63L72.66 97.03L50.16 125.16L54.38 125.16Q84.38 111.09 93.75 111.09L93.75 111.09Q98.91 113.91 100.78 119.53L100.78 119.53Q100.78 132.66 81.09 140.63L81.09 140.63L74.06 140.63L74.06 139.22Q92.34 123.75 92.34 116.72L92.34 116.72L92.34 115.31L88.13 115.31Q82.50 115.31 40.31 139.22L40.31 139.22L36.09 135L36.09 130.78L57.19 105.47L57.19 104.06L54.38 104.06L47.34 105.47L45.94 104.06L45.94 101.25Z"/></g></g></svg>